# xmcd
#
# Track frame offsets:
#	150
#	12855
#	24488
#	35568
#	50495
#	62900
#	75615
#	98000
#	111963
#	124710
#	139243
#	152150
#	162173
#	176803
#	191373
#	205020
#
# Disc length: 2907
#
# Revision: 3
# Processed by: cddbd v1.5.1PL0 Copyright (c) Steve Scherf et al.
# Submitted via: CDWizzard Release:4.61
# Normalized: r1:TSWAP
#
DISCID=d20b5910
DTITLE=Various Artist - Black and Blues (Sweet Little Angel)
DYEAR=1900
DGENRE=
TTITLE0=John Lee hooker - Whiskey and Woman
TTITLE1=Slim Harpo - Raining In My Heart
TTITLE2=Howlin' Wolf - Little Red Rooster
TTITLE3=Willie Dixon - Pain In My Heart
TTITLE4=Jimmy Reed - Bright Lights Big City
TTITLE5=Albert King - California Blues
TTITLE6=Snowy White - Bird Of Paradise
TTITLE7=T-Bone Walker - That Evening Train
TTITLE8=Muddy Waters - I Just Want To Make Love To You
TTITLE9=Otis Rush - So Many Roads, So Many Trains
TTITLE10=Muddy Waters - Hootchie Cootchie Man
TTITLE11=Fats Domino - Can't Go On Without You
TTITLE12=Rod Stewart - So Much To Say
TTITLE13=B. B. King - Sweet Little Angel
TTITLE14=Lightnin' Hopkins - Lovin' Arms
TTITLE15=Sam Cooke - That's Heaven To Me
EXTD=
EXTT0=
EXTT1=
EXTT2=
EXTT3=
EXTT4=
EXTT5=
EXTT6=
EXTT7=
EXTT8=
EXTT9=
EXTT10=
EXTT11=
EXTT12=
EXTT13=
EXTT14=
EXTT15=
PLAYORDER=
